<?xml version="1.0" encoding="UTF-8"?>
<svg id="Layer_1" data-name="Layer 1" xmlns="http://www.w3.org/2000/svg" viewBox="0 0 777.12 320.15">
  <defs>
    <style>
      .cls-1 {
        fill: #231f20;
        stroke-width: 0px;
      }
    </style>
  </defs>
  <path class="cls-1" d="m124.06,138.21c2.9,0,6.25.82,10.05,2.38,3.72,1.64,7.52,3.8,11.24,6.47l6.62,26.72h-38.58v-35.58h19.25c4.32,0-18.7,0-15.43,0h6.85Zm-10.67-99.24V.13c.51-.05,1.02-.09,1.54-.13h67.58c3.5,0,6.62,1.27,9.3,3.72,2.68,2.46,4.02,5.43,4.02,8.93v16.97c0,6.55,0,12.73.07,18.53.07,5.81.15,10.79.15,14.96v6.18c-.15,1.19-.45,1.86-.74,2.01-.37.07-.97.22-1.64.37-2.23-.37-3.94-1.49-5.28-3.27-1.27-1.71-2.38-3.72-3.35-6.1-.97-2.31-1.86-4.84-2.75-7.52-.82-2.68-2.01-5.14-3.35-7.37-1.41-2.31-3.2-4.17-5.36-5.81-2.16-1.56-4.99-2.53-8.48-2.83h-50.16c-.52.06-1.03.13-1.54.2Zm0,134.81h-38.58v-35.58h38.58v35.58h0ZM113.39.13c-5.15.46-10.3,1.16-15.51,2.18-5.66,1.04-11.24,2.75-16.89,4.99-5.58,2.23-11.09,5.14-16.45,8.71-5.36,3.57-10.57,8.04-15.7,13.4-4.17,4.39-7.89,9.53-11.09,15.48-3.2,6.03-5.88,12.58-8.04,19.87-2.16,7.29-3.8,15.11-4.91,23.44-1.12,8.34-1.64,17.12-1.64,26.27v164.86c-.3,5.36-1.04,9.53-2.31,12.5-1.19,2.98-2.68,5.28-4.47,6.85-1.71,1.64-3.57,2.75-5.43,3.5-1.86.74-3.65,1.49-5.36,2.31-1.64.82-3.05,1.94-4.09,3.5-1.12,1.49-1.56,3.87-1.49,7.07,0,.3.07.6.15.89.07.3.45.45,1.19.45h83.95c.82,0,1.34-.15,1.41-.37.07-.22.07-.37.07-.52,0-3.5-.45-6.03-1.41-7.52-.97-1.56-2.16-2.75-3.72-3.57-1.49-.89-3.2-1.71-5.14-2.53-1.86-.82-3.57-2.16-5.21-4.17-1.56-1.93-2.98-4.91-4.17-8.78-1.12-3.94-1.79-9.38-1.94-16.37V108.14c.3-12.8,1.64-23.52,4.17-32.08,2.46-8.56,5.81-15.48,10.12-20.69,4.32-5.28,9.38-9.08,15.33-11.61,5.61-2.29,11.74-3.86,18.56-4.79V.13Z"/>
  <path class="cls-1" d="m182.74,246.6l-4.93,16.04v-32.1l4.93,16.07h0Zm-4.93,69c3.11,1.09,6.51,1.64,10.16,1.64,8.74,0,15.98-2.99,21.66-8.96,2.91-3.06,5.6-7.17,8.07-12.4,2.54-5.15,5-11.43,7.47-18.89l75.5-244.57c1.72-4.56,3.66-7.99,5.9-10.45,2.17-2.39,4.41-4.18,6.8-5.45,2.32-1.19,4.63-2.17,6.87-2.69,2.24-.6,4.26-1.34,5.9-2.24,1.64-.9,2.99-2.17,3.81-3.81.9-1.72,1.27-4.26,1.12-7.77h-56.2c-6.17,0-7.55,6.28-8.14,8.21l-10.93,35.77-62.35,201.93-15.61,51.19v18.48Zm0-52.96l-13.29,43.25c-4.93-6.27-9.49-15.91-13.52-28.9l-50.63-163.27-8.53-27.78,33.47-.22h2.13c6.74.32,8.72,6.28,9.32,8.36l9.99,35.17,31.07,101.28v32.1h0Zm0,34.48l-4.93,16.17c1.55.94,3.19,1.71,4.93,2.31v-18.48Z"/>
  <polygon class="cls-1" points="392.44 95.43 355.76 196.43 319 95.43 331.74 95.43 355.76 161.25 379.71 95.43 392.44 95.43"/>
  <path class="cls-1" d="m430.48,153.66l-9.24-25.52h0s0-34.91,0-34.91l.07-.2,36.88,101.77h-12.71l-10.6-29.21h-13.63v-11.94h9.24Zm-9.24-25.52l-9.24,25.52h9.24v11.94h-13.66l-10.58,29.21h-12.81l37.05-101.57v34.91Z"/>
  <polygon class="cls-1" points="470.71 194.8 470.71 95.43 482.72 95.43 482.72 182.79 518.04 182.79 518.04 194.8 470.71 194.8"/>
  <polygon class="cls-1" points="582.82 95.43 582.82 107.44 541.72 107.44 541.72 139.08 582.82 139.08 582.82 151.16 541.72 151.16 541.72 182.79 582.82 182.79 582.82 194.8 529.71 194.8 529.71 95.43 582.82 95.43"/>
  <path class="cls-1" d="m671.29,97.23c8.81,2.12,16.12,6.09,21.96,11.93,9.92,10,14.87,21.98,14.87,35.95s-4.97,26.06-14.94,35.98c-5.8,5.83-13.09,9.8-21.88,11.91v-12.69c5.12-1.69,9.5-4.3,13.15-7.83,7.55-7.52,11.31-16.64,11.31-27.37s-3.76-19.77-11.31-27.37c-3.65-3.5-8.03-6.09-13.15-7.77v-12.75Zm-15.92-1.8c5.76.03,11.06.64,15.92,1.8v12.75c-4.71-1.55-10.04-2.32-15.99-2.32h-8.47v74.99h8.47c5.95,0,11.28-.78,15.99-2.34v12.69c-4.85,1.16-10.15,1.76-15.92,1.8h-20.55v-99.37h20.55Z"/>
  <polygon class="cls-1" points="773.58 95.43 773.58 107.44 732.48 107.44 732.48 139.08 773.58 139.08 773.58 151.16 732.48 151.16 732.48 182.79 773.58 182.79 773.58 194.8 720.47 194.8 720.47 95.43 773.58 95.43"/>
  <path class="cls-1" d="m398.12,296.33l9.1,8.03c-11.57,10.53-23.87,15.79-36.95,15.79-14.1,0-26.08-4.95-35.98-14.85-9.9-9.92-14.85-21.91-14.85-35.98s4.95-25.93,14.85-35.88c9.9-9.97,21.88-14.94,35.98-14.94,13.08,0,25.38,5.29,36.95,15.87l-9.1,8.03c-8.81-7.81-18.1-11.74-27.85-11.74-10.67,0-19.8,3.78-27.37,11.35-7.59,7.54-11.38,16.67-11.38,27.32s3.78,19.85,11.38,27.37c7.57,7.54,16.69,11.31,27.37,11.31,9.75,0,19.04-3.88,27.85-11.67Z"/>
  <path class="cls-1" d="m463.35,277.87l-9.24-25.52h0s0-34.91,0-34.91l.07-.2,36.88,101.77h-12.71l-10.6-29.21h-13.63v-11.94h9.24Zm-9.24-25.52l-9.24,25.52h9.24v11.94h-13.66l-10.58,29.21h-12.81l37.05-101.57v34.91Z"/>
  <polygon class="cls-1" points="547.53 285.68 592.02 208.55 592.02 319.01 579.94 319.01 579.94 253.63 547.48 309.77 515.14 253.77 515.14 319.01 503.11 319.01 503.11 208.7 547.53 285.68"/>
  <path class="cls-1" d="m636.46,219.79c7.51,1.22,13.9,4.45,19.17,9.67,6.53,6.57,9.8,14.48,9.8,23.73s-3.28,17.3-9.85,23.87c-5.44,5.48-11.82,8.68-19.12,9.61v-12.33c4-.83,7.54-2.78,10.63-5.85,4.22-4.17,6.33-9.29,6.33-15.31s-2.11-10.99-6.33-15.16c-3.09-3.07-6.63-5.02-10.63-5.85v-12.39Zm-16.96,67.17v32.05h-12.01v-99.37h27.95c.34.05.68.1,1.02.15v12.39c-1.47-.3-3-.46-4.58-.46h-12.37v43.09h12.37c1.59,0,3.12-.15,4.58-.46v12.33c-1.49.19-3.02.28-4.58.28h-12.37Z"/>
  <path class="cls-1" d="m726.23,218.31c14.07,0,26.07,4.98,35.99,14.92,9.92,9.95,14.9,21.93,14.9,35.95s-4.97,26.08-14.9,36.05c-9.92,9.94-21.92,14.92-35.99,14.92v-12.15c10.72,0,19.86-3.79,27.43-11.38,7.59-7.57,11.38-16.72,11.38-27.44s-3.78-19.77-11.38-27.37c-7.57-7.57-16.71-11.35-27.43-11.35v-12.15Zm-.01,0h.01v12.15h-.01c-10.65,0-19.8,3.78-27.39,11.35-7.62,7.59-11.4,16.72-11.4,27.37s3.78,19.87,11.4,27.44c7.59,7.59,16.74,11.38,27.39,11.38h.01v12.15h-.01c-14.02,0-26.01-4.97-35.95-14.92-9.95-9.97-14.92-21.98-14.92-36.05s4.97-26.01,14.92-35.95c9.95-9.95,21.93-14.92,35.95-14.92Z"/>
  <polygon class="cls-1" points="340.19 41.91 340.19 45.94 328.34 45.94 328.34 56.56 340.19 56.56 340.19 60.62 328.34 60.62 328.34 75.27 324.3 75.27 324.3 41.91 340.19 41.91"/>
  <path class="cls-1" d="m392.21,41.91h4.03v23.55c-.37,2.67-1.47,4.93-3.3,6.78-2.21,2.19-4.87,3.29-7.99,3.29s-5.78-1.1-7.98-3.31c-2.21-2.2-3.31-4.85-3.31-7.96v-22.36h4.03v22.36c0,1.98.72,3.67,2.13,5.1,1.43,1.43,3.14,2.13,5.12,2.13s3.71-.71,5.13-2.13c1.42-1.43,2.13-3.12,2.13-5.1v-22.36Z"/>
  <polygon class="cls-1" points="450.09 65.65 450.09 41.91 454.12 41.91 454.12 78.32 435.1 51.63 435.1 75.27 431.07 75.27 431.07 39 450.09 65.65"/>
  <polygon class="cls-1" points="506.78 41.91 506.78 45.94 492.99 45.94 492.99 56.56 506.78 56.56 506.78 60.62 492.99 60.62 492.99 71.24 506.78 71.24 506.78 75.27 488.96 75.27 488.96 41.91 506.78 41.91"/>
  <path class="cls-1" d="m551.41,60.28c1.34-.28,2.53-.93,3.57-1.96,1.42-1.4,2.13-3.12,2.13-5.14s-.71-3.69-2.13-5.09c-1.04-1.03-2.23-1.69-3.57-1.96v-4.16c2.52.41,4.66,1.49,6.43,3.25,2.19,2.21,3.29,4.86,3.29,7.97s-1.1,5.8-3.29,8c-1.53,1.52-2.76,2.4-3.71,2.65l7.43,11.45h-4.87l-5.29-8.23v-6.77Zm-5.69-14.31v14.46h4.15c.53,0,1.05-.05,1.54-.15v6.77l-1.61-2.51.07-.02h-4.15v10.76h-4.03v-33.36h9.38c.11.02.23.03.34.05v4.16c-.49-.1-1.01-.15-1.54-.15h-4.15Z"/>
  <path class="cls-1" d="m609.78,61.46l-3.1-8.57v-11.72l.02-.07,12.38,34.17h-4.27l-3.56-9.81h-4.58v-4.01h3.1Zm-3.1-23.46v-4.71l1.05-1.21h7.13l-7.75,5.92h-.43Zm0,14.89l-3.1,8.57h3.1v4.01h-4.59l-3.55,9.81h-4.3l12.44-34.1v11.72h0Zm0-19.6v4.71h-4.1l4.1-4.71Z"/>
  <path class="cls-1" d="m662.57,60.28c1.34-.28,2.53-.93,3.57-1.96,1.42-1.4,2.13-3.12,2.13-5.14s-.71-3.69-2.13-5.09c-1.04-1.03-2.23-1.69-3.57-1.96v-4.16c2.52.41,4.66,1.49,6.43,3.25,2.19,2.21,3.29,4.86,3.29,7.97s-1.1,5.8-3.29,8c-1.53,1.52-2.76,2.4-3.71,2.65l7.43,11.45h-4.87l-5.29-8.23v-6.77Zm-5.69-14.31v14.46h4.15c.53,0,1.05-.05,1.54-.15v6.77l-1.61-2.51.07-.02h-4.15v10.76h-4.03v-33.36h9.38c.11.02.23.03.34.05v4.16c-.49-.1-1.01-.15-1.54-.15h-4.15Z"/>
  <rect class="cls-1" x="706.76" y="41.91" width="4.04" height="33.36"/>
  <path class="cls-1" d="m760.35,61.46l-3.1-8.57v-11.72l.02-.07,12.38,34.17h-4.27l-3.56-9.81h-4.58v-4.01h3.1Zm-3.1-8.57l-3.1,8.57h3.1v4.01h-4.59l-3.55,9.81h-4.3l12.44-34.1v11.72Z"/>
</svg>