<?xml version="1.0" encoding="UTF-8"?>
<svg id="Layer_1" data-name="Layer 1" xmlns="http://www.w3.org/2000/svg" viewBox="0 0 100 100">
  <defs>
    <style>
      .cls-1 {
        fill: #fff;
      }

      .cls-1, .cls-2 {
        stroke-width: 0px;
      }

      .cls-2 {
        fill: #231f20;
      }
    </style>
  </defs>
  <rect class="cls-1" width="100" height="100"/>
  <g>
    <path class="cls-2" d="m40.16,45.16c.69,0,1.48.19,2.38.57.88.39,1.78.9,2.67,1.54l1.57,6.34h-9.15v-8.44h4.57c1.02,0-4.44,0-3.66,0h1.62Zm-2.53-23.54v-9.22c.12-.01.24-.02.36-.03h16.03c.83,0,1.57.3,2.21.88.64.58.95,1.29.95,2.12v4.03c0,1.55,0,3.02.02,4.4.02,1.38.04,2.56.04,3.55v1.47c-.04.28-.11.44-.18.48-.09.02-.23.05-.39.09-.53-.09-.94-.35-1.25-.78-.3-.41-.57-.88-.79-1.45-.23-.55-.44-1.15-.65-1.78-.19-.64-.48-1.22-.79-1.75-.34-.55-.76-.99-1.27-1.38-.51-.37-1.18-.6-2.01-.67h-11.9c-.12.01-.24.03-.36.05Zm0,31.98h-9.15v-8.44h9.15v8.44h0Zm0-41.2c-1.22.11-2.44.28-3.68.52-1.34.25-2.67.65-4.01,1.18-1.32.53-2.63,1.22-3.9,2.07-1.27.85-2.51,1.91-3.73,3.18-.99,1.04-1.87,2.26-2.63,3.67-.76,1.43-1.39,2.98-1.91,4.71-.51,1.73-.9,3.58-1.17,5.56-.26,1.98-.39,4.06-.39,6.23v39.11c-.07,1.27-.25,2.26-.55,2.97-.28.71-.64,1.25-1.06,1.62-.41.39-.85.65-1.29.83-.44.18-.87.35-1.27.55-.39.19-.72.46-.97.83-.26.35-.37.92-.35,1.68,0,.07.02.14.04.21.02.07.11.11.28.11h19.92c.19,0,.32-.04.34-.09.02-.05.02-.09.02-.12,0-.83-.11-1.43-.34-1.78-.23-.37-.51-.65-.88-.85-.35-.21-.76-.41-1.22-.6-.44-.19-.85-.51-1.24-.99-.37-.46-.71-1.17-.99-2.08-.26-.94-.42-2.22-.46-3.88v-39c.07-3.04.39-5.58.99-7.61.58-2.03,1.38-3.67,2.4-4.91,1.02-1.25,2.22-2.15,3.64-2.75,1.33-.54,2.78-.92,4.4-1.14v-9.22Z"/>
    <path class="cls-2" d="m54.08,70.87l-1.17,3.8v-7.62l1.17,3.81h0Zm-1.17,16.37c.74.26,1.54.39,2.41.39,2.07,0,3.79-.71,5.14-2.13.69-.73,1.33-1.7,1.91-2.94.6-1.22,1.19-2.71,1.77-4.48l17.91-58.02c.41-1.08.87-1.9,1.4-2.48.51-.57,1.05-.99,1.61-1.29.55-.28,1.1-.51,1.63-.64.53-.14,1.01-.32,1.4-.53.39-.21.71-.51.9-.9.21-.41.3-1.01.27-1.84h-13.33c-1.46,0-1.79,1.49-1.93,1.95l-2.59,8.49-14.79,47.9-3.7,12.14v4.38Zm0-12.56l-3.15,10.26c-1.17-1.49-2.25-3.77-3.21-6.86l-12.01-38.73-2.02-6.59,7.94-.05h.51c1.6.08,2.07,1.49,2.21,1.98l2.37,8.34,7.37,24.03v7.62h0Zm0,8.18l-1.17,3.84c.37.22.76.41,1.17.55v-4.38Z"/>
  </g>
</svg>